<svg width="738" height="805" viewBox="0 0 738 805" fill="none" xmlns="http://www.w3.org/2000/svg">
<g id="Frame 1">
<g id="undrawn_Books 1" clip-path="url(#clip0_7_2)">
<g id="leaf2">
<path id="leaf2_2" d="M589.87 389.95C573.89 407.89 571.06 431.95 568.5 456.49C566.59 474.64 564.83 493.06 558 509.47C552.229 523.103 543.044 535.019 531.33 544.07C530.28 544.89 529.21 545.68 528.12 546.45H469.85C469.76 545.66 469.69 544.86 469.62 544.07C467.112 514.203 473.888 484.291 489.02 458.42C495.075 448.287 502.383 438.957 510.77 430.65C519.86 446.52 531.08 461.86 531.08 461.86L526.01 417.38C544.748 403.177 566.669 393.761 589.87 389.95Z" fill="#F2F2F2"/>
</g>
<g id="leaf">
<path id="leaf_2" d="M685.79 442.36C646.99 457.89 635.56 507.76 603.96 535.12C600.059 538.486 595.855 541.482 591.4 544.07C589.96 544.91 588.5 545.71 587.01 546.45H503.13C503.33 545.66 503.52 544.86 503.73 544.07C512.67 509.38 534.84 478.12 564.99 458.67C566.15 457.92 567.32 457.19 568.5 456.49C577.439 451.131 586.943 446.778 596.84 443.51C597.9 461.76 601.1 480.5 601.1 480.5L616.4 438.43C639.505 434.074 663.324 435.423 685.79 442.36Z" fill="#F2F2F2"/>
</g>
<path id="Vector" d="M685.67 545.26C685.671 545.416 685.64 545.571 685.58 545.716C685.521 545.861 685.433 545.992 685.323 546.103C685.212 546.213 685.081 546.301 684.936 546.36C684.791 546.42 684.636 546.451 684.48 546.45H49.19C48.8744 546.45 48.5717 546.325 48.3485 546.101C48.1254 545.878 48 545.576 48 545.26C48 544.944 48.1254 544.642 48.3485 544.419C48.5717 544.195 48.8744 544.07 49.19 544.07H684.48C684.636 544.07 684.791 544.1 684.936 544.16C685.081 544.219 685.212 544.307 685.323 544.418C685.433 544.528 685.521 544.659 685.58 544.804C685.64 544.949 685.671 545.104 685.67 545.26V545.26Z" fill="#CCCCCC"/>
<path id="Vector_2" d="M447.411 554.133H336.395C331.266 554.135 326.186 553.127 321.447 551.166C316.707 549.205 312.4 546.329 308.772 542.703C305.144 539.077 302.266 534.772 300.303 530.033C298.339 525.294 297.329 520.215 297.329 515.086C297.329 509.957 298.339 504.877 300.303 500.139C302.266 495.4 305.144 491.095 308.772 487.469C312.4 483.843 316.707 480.967 321.447 479.006C326.186 477.045 331.266 476.036 336.395 476.039H447.411C452.54 476.036 457.62 477.045 462.36 479.006C467.099 480.967 471.406 483.843 475.034 487.469C478.662 491.095 481.54 495.4 483.504 500.139C485.467 504.877 486.478 509.957 486.478 515.086C486.478 520.215 485.467 525.294 483.504 530.033C481.54 534.772 478.662 539.077 475.034 542.703C471.406 546.329 467.099 549.205 462.36 551.166C457.62 553.127 452.54 554.135 447.411 554.133V554.133Z" fill="#2F2E41"/>
<g id="upload">
<path id="hand" d="M260.531 171.105C262.022 172.817 263.119 174.834 263.745 177.015C264.372 179.196 264.512 181.488 264.157 183.729C263.802 185.971 262.96 188.107 261.69 189.988C260.42 191.868 258.753 193.448 256.806 194.614L268.09 248.611L241.437 238.059L234.808 188.4C233.065 185.001 232.63 181.079 233.584 177.38C234.539 173.68 236.817 170.46 239.988 168.328C243.159 166.196 247.001 165.301 250.787 165.813C254.573 166.325 258.04 168.208 260.531 171.105L260.531 171.105Z" fill="#FFB6B6"/>
<path id="contmain" d="M327.081 136.12C325.072 128.774 320.943 122.184 315.211 117.171C309.479 112.158 302.397 108.945 294.85 107.933C294.682 107.908 294.524 107.941 294.357 107.929C294.142 107.86 293.923 107.807 293.7 107.77C258.495 102.982 217.856 120.7 203.184 155.821C195.919 145.696 184.337 139.155 171.95 139.805C156.146 140.635 142.2 152.74 137.927 168.661C137.692 169.618 137.756 170.624 138.111 171.544C138.467 172.463 139.097 173.251 139.915 173.8C142.676 175.881 144.561 177.339 147.958 178.096C154.351 179.522 160.768 180.827 167.207 182.013C179.771 184.327 192.401 186.198 205.097 187.625C230.858 190.531 256.796 191.562 282.706 190.712C291.334 190.429 299.655 190.128 307.56 186.121C313.374 183.075 318.289 178.561 321.819 173.028C328.721 162.489 330.544 148.325 327.081 136.12Z" fill="#3F3D56"/>
<path id="cont" d="M323.2 137.98C321.296 131.465 317.495 125.665 312.28 121.32C306.859 116.897 300.309 114.077 293.37 113.18H292.95L292.56 113.11C292.436 113.071 292.309 113.041 292.18 113.02C280.571 111.64 268.805 112.482 257.51 115.5C235.8 121.21 215.24 134.73 205.64 156.54L204.27 159.67L202.22 156.94C195.47 148.01 185.35 142.8 174.9 142.8C174.38 142.8 173.86 142.81 173.33 142.84C158.81 143.56 145.87 154 141.85 168.23C141.749 168.734 141.809 169.256 142.021 169.725C142.232 170.193 142.585 170.583 143.03 170.84L143.19 170.96C145.76 172.79 147.31 173.9 150.16 174.51C156.37 175.83 162.69 177.05 168.94 178.14C181.06 180.26 193.5 182.01 205.9 183.34C227.831 185.694 249.885 186.72 271.94 186.41C275.17 186.37 278.393 186.3 281.61 186.2C289.89 185.95 297.72 185.7 305.14 182.13C310.456 179.496 314.998 175.526 318.32 170.61C321.464 165.856 323.53 160.472 324.373 154.835C325.216 149.199 324.816 143.446 323.2 137.98Z" fill="white"/>
<path id="blue" d="M271.94 186.41C249.885 186.72 227.831 185.694 205.9 183.34C193.5 182.01 181.06 180.26 168.94 178.14C162.69 177.05 156.37 175.83 150.16 174.51C147.31 173.9 145.76 172.79 143.19 170.96L143.03 170.84C142.585 170.583 142.232 170.193 142.021 169.725C141.809 169.256 141.749 168.734 141.85 168.23C145.87 154 158.81 143.56 173.33 142.84C173.86 142.81 174.38 142.8 174.9 142.8C185.35 142.8 195.47 148.01 202.22 156.94L204.27 159.67L205.64 156.54C215.24 134.73 235.8 121.21 257.51 115.5C261.89 119.46 264.71 125.53 263.11 131.16C261.18 137.99 253.54 142.25 252.26 149.23C251.09 155.6 255.65 161.52 260.34 165.98C265.03 170.43 270.46 174.9 271.82 181.22C272.184 182.927 272.225 184.688 271.94 186.41Z" fill="#6C63FF"/>
<path id="arrowcont" d="M290.79 167C300.731 167 308.79 158.941 308.79 149C308.79 139.059 300.731 131 290.79 131C280.849 131 272.79 139.059 272.79 149C272.79 158.941 280.849 167 290.79 167Z" fill="#6C63FF"/>
<path id="arrow" d="M298.335 147.08L291.585 140.33C291.481 140.225 291.357 140.142 291.22 140.086C291.084 140.029 290.938 140 290.79 140C290.642 140 290.496 140.029 290.359 140.086C290.223 140.142 290.099 140.225 289.995 140.33L283.245 147.08C283.034 147.291 282.916 147.577 282.916 147.875C282.916 148.173 283.034 148.459 283.245 148.67C283.456 148.881 283.742 148.999 284.04 148.999C284.338 148.999 284.624 148.881 284.835 148.67L289.665 143.841V156.875C289.665 157.173 289.783 157.46 289.994 157.671C290.205 157.881 290.492 158 290.79 158C291.088 158 291.375 157.881 291.585 157.671C291.796 157.46 291.915 157.173 291.915 156.875V143.841L296.745 148.67C296.849 148.775 296.973 148.858 297.11 148.915C297.246 148.971 297.392 149 297.54 149.001C297.688 149.001 297.834 148.972 297.971 148.915C298.107 148.858 298.232 148.776 298.336 148.671C298.441 148.567 298.523 148.442 298.58 148.306C298.637 148.169 298.666 148.023 298.665 147.875C298.665 147.727 298.636 147.581 298.58 147.445C298.523 147.308 298.44 147.184 298.335 147.08Z" fill="white"/>
</g>
<path id="Vector_3" d="M344.957 696.503L360.076 707.303L408.93 654.126L386.615 638.186L344.957 696.503Z" fill="#FFB6B6"/>
<path id="Vector_4" d="M344.627 688.811L348.883 691.851L370.324 696.964L374.402 710.081L374.403 710.082C379.435 713.677 382.833 719.124 383.85 725.225C384.866 731.325 383.417 737.579 379.823 742.612L379.382 743.228L330.632 708.403L344.627 688.811Z" fill="#2F2E41"/>
<path id="Vector_5" d="M430.79 539L416.303 517.698C414.528 494.582 432.321 474.222 455.5 473.767C468.409 473.514 481.027 479.705 487.757 500.643C505.061 554.484 389.129 679.065 389.129 679.065L364.921 666.73L362.619 651.779L374.863 642.764L373.816 629.938L385.635 623.089L430.79 539Z" fill="#2F2E41"/>
<path id="Vector_6" d="M392.944 281.476L410.851 295.111L432.446 301.748C432.446 301.748 441.374 427.329 449.419 435.373C457.463 443.418 450.208 443.634 451.824 454.084C453.441 464.534 457.369 485.956 457.369 485.956C403.07 514.699 356.258 515.47 318.656 481.835C318.175 479.755 318.419 477.572 319.349 475.65C320.278 473.727 321.836 472.18 323.766 471.264C330.764 467.551 317.314 450.219 323.034 447.321C328.753 444.423 320.709 419.284 320.709 419.284L325.986 366.835L321.817 358.45L331.991 307.149L349.645 300.701L356.697 283.71L392.944 281.476Z" fill="#6C63FF"/>
<path id="Vector_7" d="M235.072 207.189L245.85 306.444L246.231 306.631C246.546 306.786 260.201 313.483 276.962 321.46C279.79 322.805 279.385 328.634 282.34 330.027C284.375 330.987 289.751 327.505 291.808 328.467C310.129 337.034 328.654 345.365 336.037 347.623C346.005 350.781 356.752 350.435 366.496 346.642L366.731 346.534L366.854 346.306C369.343 341.643 370.169 336.27 369.195 331.074C368.222 325.878 365.506 321.17 361.497 317.724C342.052 301.191 319.031 289.405 294.25 283.294L280.15 279.834L262.091 209.129L235.072 207.189Z" fill="#6C63FF"/>
<g id="head">
<path id="face" d="M374.613 273.887C394.175 273.887 410.033 258.029 410.033 238.467C410.033 218.906 394.175 203.048 374.613 203.048C355.051 203.048 339.193 218.906 339.193 238.467C339.193 258.029 355.051 273.887 374.613 273.887Z" fill="#FFB6B6"/>
<path id="hair" d="M345.763 208.039C348.676 199.565 363.176 193.687 386.684 192.869C410.191 192.052 416.153 219.754 416.153 219.754C431.846 232.484 399.396 266.566 397.826 265.339L398.532 258.935C399.701 248.329 404.667 240.054 398.351 229L392.286 229.07L380.782 231.282C380.065 231.42 379.322 231.318 378.669 230.992C378.015 230.666 377.487 230.135 377.166 229.479C376.844 228.823 376.747 228.08 376.89 227.364C377.032 226.648 377.406 225.999 377.954 225.516L378.06 225.423L377.798 225.019C373.746 226.878 369.57 228.602 365.139 228.862C360.155 229.155 354.706 227.172 352.318 222.786C351.681 221.581 351.291 220.26 351.173 218.902C344.451 221.587 341.378 229.873 341.378 229.873C341.378 229.873 342.85 216.513 345.763 208.039Z" fill="#2F2E41"/>
</g>
<path id="Vector_8" d="M441.424 681.435L427.244 693.442L374.184 644.462L395.112 626.741L441.424 681.435Z" fill="#FFB6B6"/>
<path id="Vector_9" d="M456.679 692.117L410.958 730.833L410.468 730.254C406.472 725.535 404.514 719.421 405.025 713.257C405.536 707.094 408.475 701.386 413.194 697.389L413.195 697.388L416.181 683.98L437.129 677.122L441.12 673.742L456.679 692.117Z" fill="#2F2E41"/>
<path id="Vector_10" d="M353.79 546L365.511 520.583C365.379 497.399 345.972 478.571 322.834 480.024C309.948 480.833 297.882 488.04 292.897 509.461C280.078 564.543 405.86 679.169 405.86 679.169L428.973 664.885L430.038 649.796L417.094 641.818L417.083 628.949L404.74 623.095L353.79 546Z" fill="#2F2E41"/>
<path id="Vector_11" d="M344.677 497.035V408.741C344.679 406.953 345.39 405.24 346.653 403.976C347.917 402.713 349.63 402.002 351.418 402H418.099C419.886 402.002 421.6 402.713 422.863 403.977C424.127 405.24 424.838 406.953 424.84 408.741V497.035C424.838 498.822 424.127 500.535 422.863 501.799C421.6 503.063 419.886 503.773 418.099 503.775H351.418C349.63 503.773 347.917 503.063 346.653 501.799C345.39 500.535 344.679 498.822 344.677 497.035Z" fill="#E6E6E6"/>
<path id="Vector_12" d="M349.792 470.366V413.603C349.794 411.929 350.459 410.324 351.643 409.141C352.826 407.958 354.431 407.292 356.105 407.29H413.412C415.086 407.292 416.69 407.957 417.874 409.141C419.057 410.324 419.723 411.929 419.725 413.603V492.173C419.723 493.846 419.057 495.451 417.874 496.634C416.69 497.818 415.086 498.483 413.412 498.485H377.911C370.456 498.477 363.309 495.512 358.037 490.24C352.766 484.969 349.8 477.821 349.792 470.366V470.366Z" fill="white"/>
<path id="Vector_13" d="M359.071 429.441C359.072 427.805 359.723 426.237 360.879 425.081C362.036 423.924 363.604 423.274 365.239 423.272H404.993C406.629 423.272 408.199 423.922 409.355 425.079C410.512 426.236 411.162 427.805 411.162 429.441C411.162 431.077 410.512 432.646 409.355 433.803C408.199 434.96 406.629 435.609 404.993 435.609H365.239C363.604 435.608 362.036 434.957 360.879 433.801C359.723 432.644 359.072 431.076 359.071 429.441V429.441Z" fill="#E6E6E6"/>
<path id="Vector_14" d="M359.071 448.632C359.072 446.997 359.723 445.429 360.879 444.272C362.036 443.116 363.604 442.465 365.239 442.464H404.993C406.629 442.464 408.199 443.114 409.355 444.27C410.512 445.427 411.162 446.996 411.162 448.632C411.162 450.268 410.512 451.837 409.355 452.994C408.199 454.151 406.629 454.801 404.993 454.801H365.239C363.604 454.799 362.036 454.149 360.879 452.992C359.723 451.836 359.072 450.268 359.071 448.632V448.632Z" fill="#E6E6E6"/>
<path id="Vector_15" d="M359.071 467.824C359.072 466.188 359.723 464.62 360.879 463.464C362.036 462.307 363.604 461.657 365.239 461.655H404.993C406.629 461.655 408.199 462.305 409.355 463.462C410.512 464.619 411.162 466.188 411.162 467.824C411.162 469.46 410.512 471.029 409.355 472.186C408.199 473.343 406.629 473.993 404.993 473.993H365.239C363.604 473.991 362.036 473.34 360.879 472.184C359.723 471.027 359.072 469.459 359.071 467.824V467.824Z" fill="#E6E6E6"/>
<path id="Vector_16" d="M404.162 504.676C404.082 502.408 404.5 500.15 405.387 498.061C406.273 495.973 407.607 494.103 409.295 492.586C410.982 491.068 412.981 489.939 415.152 489.278C417.323 488.617 419.613 488.44 421.859 488.759L447.096 439.707L461.155 464.688L435.035 507.438C434.249 511.177 432.118 514.498 429.047 516.77C425.976 519.043 422.177 520.11 418.372 519.77C414.566 519.429 411.018 517.705 408.399 514.923C405.78 512.141 404.273 508.495 404.162 504.676H404.162Z" fill="#FFB6B6"/>
<path id="Vector_17" d="M446.662 492.677L500.79 408.785L500.611 408.399C500.407 407.957 488.15 381.484 476.273 357.237C474.444 353.503 472.624 349.822 470.859 346.297C470.097 344.775 469.346 343.286 468.607 341.828C463.619 331.994 459.26 323.865 456.659 320.004C450.904 311.275 442.337 304.776 432.38 301.587L432.13 301.522L431.891 301.622C427.02 303.677 422.995 307.331 420.48 311.98C417.965 316.63 417.109 321.998 418.053 327.199C422.749 352.287 433.21 375.94 448.613 396.291L457.388 407.858L426.894 474.155L446.662 492.677Z" fill="#6C63FF"/>
</g>
</g>
<defs>
<clipPath id="clip0_7_2">
<rect width="637.79" height="636.228" fill="white" transform="translate(48 107)"/>
</clipPath>
</defs>
</svg>
