<svg id="visual" viewBox="0 0 1600 440" width="1600" height="440" xmlns="http://www.w3.org/2000/svg" xmlns:xlink="http://www.w3.org/1999/xlink" version="1.1"><path d="M0 158L17.8 156.5C35.7 155 71.3 152 106.8 156C142.3 160 177.7 171 213.2 170.5C248.7 170 284.3 158 320 159.8C355.7 161.7 391.3 177.3 426.8 183.3C462.3 189.3 497.7 185.7 533.2 179.8C568.7 174 604.3 166 640 156C675.7 146 711.3 134 746.8 132.3C782.3 130.7 817.7 139.3 853.2 139C888.7 138.7 924.3 129.3 960 126C995.7 122.7 1031.3 125.3 1066.8 138.3C1102.3 151.3 1137.7 174.7 1173.2 174.5C1208.7 174.3 1244.3 150.7 1280 149.5C1315.7 148.3 1351.3 169.7 1386.8 178.2C1422.3 186.7 1457.7 182.3 1493.2 183C1528.7 183.7 1564.3 189.3 1582.2 192.2L1600 195L1600 0L1582.2 0C1564.3 0 1528.7 0 1493.2 0C1457.7 0 1422.3 0 1386.8 0C1351.3 0 1315.7 0 1280 0C1244.3 0 1208.7 0 1173.2 0C1137.7 0 1102.3 0 1066.8 0C1031.3 0 995.7 0 960 0C924.3 0 888.7 0 853.2 0C817.7 0 782.3 0 746.8 0C711.3 0 675.7 0 640 0C604.3 0 568.7 0 533.2 0C497.7 0 462.3 0 426.8 0C391.3 0 355.7 0 320 0C284.3 0 248.7 0 213.2 0C177.7 0 142.3 0 106.8 0C71.3 0 35.7 0 17.8 0L0 0Z" fill="#f1ecfb" stroke-linecap="round" stroke-linejoin="miter"></path></svg>